<?xml version="1.0" encoding="UTF-8"?>
<svg id="Layer_2" data-name="Layer 2" xmlns="http://www.w3.org/2000/svg" viewBox="0 0 106.14 33.7">
  <defs>
    <style>
      .cls-1 {
        fill: #fff;
      }

      .cls-2 {
        fill: #0078d4;
      }
    </style>
  </defs>
  <g id="back1">
    <g>
      <rect class="cls-2" y="0" width="106.14" height="33.7" rx="1.63" ry="1.63"/>
      <g>
        <g>
          <rect class="cls-1" x="8.91" y="8.57" width="7.77" height="7.77"/>
          <rect class="cls-1" x="17.49" y="8.57" width="7.77" height="7.77"/>
          <rect class="cls-1" x="8.91" y="17.16" width="7.77" height="7.77"/>
          <rect class="cls-1" x="17.49" y="17.16" width="7.77" height="7.77"/>
        </g>
        <g>
          <path class="cls-1" d="M41.81,11.84h1.78l-2.68,9.81h-1.99l-1.97-7.4h-.04l-1.97,7.4h-2.03l-2.74-9.81h1.86l1.91,7.76h.04l2.14-7.76h1.82l1.99,7.75h.04l1.84-7.75Z"/>
          <path class="cls-1" d="M44.15,12.59c0-.27.1-.5.3-.69s.43-.28.71-.28c.29,0,.53.09.73.28.19.19.29.42.29.68s-.1.5-.29.68-.44.27-.72.27-.52-.09-.72-.28-.29-.41-.29-.67ZM45.97,14.62v7.04h-1.66v-7.04h1.66Z"/>
          <path class="cls-1" d="M53.89,17.35v4.3h-1.66v-3.93c0-.64-.11-1.12-.32-1.44-.22-.31-.56-.47-1.04-.47s-.85.18-1.15.53c-.3.35-.46.79-.46,1.33v3.98h-1.66v-7.04h1.66v.93h.03c.26-.36.58-.63.96-.81.38-.18.82-.27,1.31-.27.75,0,1.32.24,1.73.72.4.48.61,1.2.61,2.17Z"/>
          <path class="cls-1" d="M60.27,11.28h1.66v10.38h-1.66v-.93h-.03c-.25.35-.57.61-.95.78-.38.17-.83.26-1.34.26-.89,0-1.59-.3-2.11-.91-.52-.61-.79-1.45-.79-2.53,0-1.16.29-2.1.87-2.8.58-.7,1.36-1.05,2.34-1.05.44,0,.83.07,1.17.22.34.15.61.36.81.64h.03v-4.05ZM58.52,20.49c.5,0,.92-.2,1.26-.6.34-.4.51-.91.51-1.55v-.75c0-.49-.16-.9-.48-1.25-.32-.34-.72-.52-1.2-.52-.58,0-1.03.21-1.35.64-.32.43-.48,1.03-.48,1.81,0,.7.16,1.24.47,1.63.31.39.74.59,1.28.59Z"/>
          <path class="cls-1" d="M63.07,18.24c0-1.16.33-2.09.99-2.76.66-.68,1.57-1.02,2.74-1.02,1.1,0,1.96.33,2.58.98.62.65.93,1.54.93,2.65s-.33,2.05-.99,2.72c-.66.68-1.55,1.01-2.68,1.01s-1.96-.32-2.6-.96c-.64-.64-.96-1.52-.96-2.62ZM64.8,18.19c0,.73.17,1.3.5,1.68.33.39.81.58,1.43.58s1.06-.19,1.38-.58c.31-.39.47-.96.47-1.72s-.16-1.33-.49-1.71c-.33-.39-.78-.58-1.37-.58s-1.08.2-1.41.61-.5.98-.5,1.73Z"/>
          <path class="cls-1" d="M79.5,14.62h1.59l-2.05,7.04h-1.76l-1.39-5.1h-.03l-1.46,5.1h-1.74l-2.05-7.04h1.72l1.31,5.39h.04l1.54-5.39h1.58l1.39,5.41h.04l1.27-5.41Z"/>
          <path class="cls-1" d="M83.18,16.47c0,.24.08.42.23.56.15.13.48.3,1,.51.66.26,1.13.56,1.39.89.27.33.4.73.4,1.2,0,.66-.25,1.19-.76,1.59-.51.4-1.2.6-2.06.6-.29,0-.61-.04-.97-.11-.35-.07-.65-.16-.9-.27v-1.63c.3.21.62.38.97.5.35.12.66.18.94.18.37,0,.65-.05.83-.16.18-.1.27-.28.27-.53,0-.23-.09-.42-.28-.58s-.54-.34-1.05-.54c-.61-.26-1.04-.54-1.3-.86-.26-.32-.38-.73-.38-1.22,0-.63.25-1.16.76-1.56.5-.41,1.16-.61,1.96-.61.25,0,.52.03.83.08.31.05.56.13.77.21v1.57c-.22-.15-.47-.27-.77-.38-.29-.1-.58-.16-.87-.16-.31,0-.56.06-.74.18-.18.12-.26.29-.26.51Z"/>
          <path class="cls-1" d="M88.9,13.12c.61-.2,1.15-.42,1.61-.66.46-.24.92-.52,1.36-.83h.75v10.03h-1.66v-8.03c-.27.2-.58.37-.93.52-.35.15-.73.28-1.14.37v-1.41Z"/>
          <path class="cls-1" d="M93.84,13.12c.61-.2,1.15-.42,1.61-.66.46-.24.92-.52,1.36-.83h.75v10.03h-1.66v-8.03c-.27.2-.58.37-.93.52-.35.15-.73.28-1.14.37v-1.41Z"/>
        </g>
      </g>
    </g>
  </g>
</svg>