<?xml version="1.0" encoding="UTF-8"?>
<svg id="Layer_2" data-name="Layer 2" xmlns="http://www.w3.org/2000/svg" viewBox="0 0 368.16 45.72">
  <defs>
    <style>
      .cls-1 {
        fill: #001968;
      }
    </style>
  </defs>
  <g id="kv_navigation">
    <g>
      <rect class="cls-1" x="285.52" y="3.6" width="5.08" height="5.08"/>
      <path class="cls-1" d="M291.32,13.28h-5.67v21.53h5.67V13.28ZM328.92,35.03v-5.28c-.84,0-1.53-.05-2.05-.14-.59-.09-1.03-.29-1.33-.58s-.5-.73-.59-1.29c-.09-.53-.14-1.23-.14-2.07v-7.54h4.11v-4.85h-4.11V4.88h-5.67v20.82c0,1.75.16,3.25.45,4.44.3,1.18.81,2.13,1.51,2.85.71.72,1.64,1.24,2.77,1.55,1.14.31,2.6.48,4.33.48h.72ZM361.43,3.22h-5.67v31.58h5.67V3.22ZM313.67,15.39c-1.58-1.69-3.79-2.56-6.6-2.56-1.35,0-2.6.28-3.72.83-1.11.55-2.06,1.33-2.82,2.3l-.31.4v-.36s0-2.73,0-2.73h-5.59v21.53h5.64v-11.47.8c0-.14,0-.26,0-.39.06-2.01.56-3.51,1.49-4.46,1.01-1.01,2.22-1.53,3.61-1.53,1.63,0,2.89.51,3.71,1.49.81.97,1.23,2.36,1.23,4.13h0v.04h0v11.4h5.72v-12.22c0-3.07-.79-5.49-2.37-7.19M352.81,24c0-1.54-.28-3.01-.83-4.36-.54-1.34-1.3-2.54-2.28-3.56-.97-1.01-2.15-1.81-3.51-2.38-1.35-.58-2.87-.87-4.51-.87-1.54,0-3.02.3-4.37.88-1.36.58-2.56,1.4-3.56,2.4-1,1.01-1.8,2.2-2.39,3.56-.59,1.35-.88,2.82-.88,4.37s.28,3.02.84,4.38c.56,1.35,1.34,2.55,2.32,3.55.98,1.01,2.2,1.8,3.6,2.39,1.4.58,2.95.88,4.61.88,4.8,0,7.79-2.18,9.57-4.22l-4.08-3.11c-.86,1.02-2.9,2.4-5.45,2.4-1.6,0-2.92-.37-3.91-1.1-1.01-.73-1.69-1.74-2.05-2.99l-.05-.19h16.92v-2.03ZM335.93,22.02c0-1.58,1.81-4.33,5.71-4.33,3.91,0,5.72,2.75,5.72,4.33h-11.43Z"/>
      <path class="cls-1" d="M367.58,34.7c-.38.36-.83.55-1.35.55s-1-.19-1.38-.56-.56-.83-.56-1.38.2-1.04.6-1.41c.38-.35.82-.53,1.33-.53.53,0,.99.19,1.37.57s.57.83.57,1.37-.19,1.01-.58,1.39ZM365.09,32.19c-.31.32-.46.69-.46,1.12s.16.83.47,1.14c.31.31.69.47,1.13.47s.82-.16,1.13-.47c.31-.32.47-.7.47-1.14s-.15-.81-.46-1.12c-.31-.32-.69-.48-1.13-.48s-.82.16-1.14.48ZM365.38,34.38v-2.14c.13,0,.33,0,.6,0,.27,0,.41,0,.44,0,.17.01.31.05.42.11.19.11.29.28.29.51,0,.18-.05.31-.15.39-.1.08-.22.13-.37.14.14.03.24.07.31.12.13.1.19.26.19.48v.19s0,.04,0,.06c0,.02,0,.04.02.06l.02.06h-.54c-.02-.07-.03-.17-.04-.3,0-.13-.02-.22-.04-.26-.03-.08-.08-.13-.16-.16-.04-.02-.11-.03-.19-.03h-.12s-.12,0-.12,0v.76h-.56ZM366.4,32.66c-.08-.03-.19-.05-.33-.05h-.14v.62h.22c.13,0,.23-.03.31-.08s.11-.14.11-.26-.06-.2-.17-.24Z"/>
      <rect class="cls-1" x="245.12" width="1.92" height="45.72"/>
      <g>
        <rect class="cls-1" y="3.66" width="18.17" height="18.17"/>
        <rect class="cls-1" x="20.06" y="3.66" width="18.17" height="18.17"/>
        <rect class="cls-1" y="23.72" width="18.17" height="18.17"/>
        <rect class="cls-1" x="20.06" y="23.72" width="18.17" height="18.17"/>
      </g>
      <g>
        <path class="cls-1" d="M76.93,11.3h4.16l-6.26,22.94h-4.66l-4.61-17.31h-.1l-4.61,17.31h-4.75l-6.4-22.94h4.35l4.46,18.14h.1l4.99-18.14h4.26l4.66,18.11h.1l4.3-18.11Z"/>
        <path class="cls-1" d="M82.39,13.05c0-.64.23-1.18.7-1.61s1.02-.65,1.66-.65c.68,0,1.25.22,1.7.66.45.44.67.97.67,1.59s-.23,1.16-.69,1.58-1.02.64-1.68.64-1.22-.22-1.67-.65-.68-.96-.68-1.58ZM86.66,17.8v16.45h-3.87v-16.45h3.87Z"/>
        <path class="cls-1" d="M105.16,24.19v10.06h-3.87v-9.18c0-1.5-.25-2.62-.76-3.36-.51-.74-1.32-1.1-2.44-1.1s-1.99.41-2.7,1.23c-.71.82-1.06,1.86-1.06,3.1v9.31h-3.87v-16.45h3.87v2.18h.06c.61-.84,1.35-1.47,2.24-1.9.89-.42,1.91-.63,3.07-.63,1.75,0,3.1.56,4.04,1.67.94,1.11,1.42,2.8,1.42,5.06Z"/>
        <path class="cls-1" d="M120.09,9.99h3.87v24.26h-3.87v-2.18h-.06c-.59.81-1.33,1.42-2.22,1.82-.89.4-1.93.6-3.13.6-2.07,0-3.72-.71-4.94-2.13-1.23-1.42-1.84-3.39-1.84-5.9,0-2.72.68-4.9,2.04-6.54,1.36-1.64,3.18-2.46,5.46-2.46,1.03,0,1.95.17,2.74.51.79.34,1.42.84,1.89,1.49h.06v-9.47ZM115.99,31.51c1.17,0,2.15-.46,2.94-1.39.79-.93,1.18-2.14,1.18-3.63v-1.76c0-1.14-.38-2.11-1.13-2.92-.75-.81-1.69-1.21-2.81-1.21-1.37,0-2.42.5-3.16,1.5-.74,1-1.11,2.41-1.11,4.22,0,1.63.37,2.9,1.1,3.82.73.91,1.73,1.37,2.98,1.37Z"/>
        <path class="cls-1" d="M126.63,26.27c0-2.72.77-4.87,2.3-6.46,1.54-1.59,3.67-2.38,6.4-2.38,2.57,0,4.58.77,6.02,2.3,1.44,1.53,2.17,3.6,2.17,6.2s-.77,4.79-2.3,6.37c-1.54,1.58-3.63,2.37-6.27,2.37s-4.57-.75-6.07-2.25c-1.5-1.5-2.25-3.54-2.25-6.14ZM130.66,26.14c0,1.72.39,3.03,1.17,3.94.78.91,1.89,1.36,3.34,1.36s2.48-.45,3.22-1.36c.74-.91,1.1-2.25,1.1-4.03s-.38-3.11-1.14-4.01c-.76-.9-1.83-1.35-3.21-1.35s-2.52.47-3.3,1.42c-.78.94-1.18,2.29-1.18,4.04Z"/>
        <path class="cls-1" d="M165.04,17.8h3.71l-4.8,16.45h-4.11l-3.25-11.92h-.06l-3.41,11.92h-4.06l-4.78-16.45h4.02l3.06,12.61h.1l3.6-12.61h3.7l3.25,12.66h.1l2.96-12.66Z"/>
        <path class="cls-1" d="M173.65,22.12c0,.55.18.99.53,1.3.35.31,1.13.71,2.34,1.19,1.55.62,2.63,1.31,3.26,2.09.62.77.94,1.71.94,2.81,0,1.55-.59,2.79-1.78,3.73-1.19.94-2.8,1.41-4.82,1.41-.68,0-1.44-.08-2.26-.25-.83-.17-1.53-.38-2.1-.63v-3.81c.7.49,1.46.88,2.27,1.17.81.29,1.55.43,2.21.43.87,0,1.52-.12,1.94-.37.42-.25.62-.66.62-1.23,0-.53-.22-.98-.65-1.35s-1.25-.79-2.46-1.27c-1.43-.6-2.44-1.27-3.04-2.02-.6-.75-.9-1.7-.9-2.85,0-1.48.59-2.7,1.77-3.66,1.18-.95,2.71-1.43,4.58-1.43.58,0,1.22.06,1.94.19.71.13,1.31.29,1.79.5v3.68c-.51-.34-1.11-.63-1.79-.88-.68-.25-1.36-.37-2.03-.37-.74,0-1.31.14-1.72.43-.41.29-.62.68-.62,1.18Z"/>
        <path class="cls-1" d="M187.02,14.28c1.43-.47,2.69-.98,3.77-1.54,1.08-.55,2.14-1.21,3.18-1.95h1.76v23.46h-3.87V15.48c-.63.46-1.35.87-2.17,1.22-.82.36-1.7.65-2.66.87v-3.3Z"/>
        <path class="cls-1" d="M198.57,14.28c1.43-.47,2.69-.98,3.77-1.54,1.08-.55,2.14-1.21,3.18-1.95h1.76v23.46h-3.87V15.48c-.63.46-1.35.87-2.17,1.22-.82.36-1.7.65-2.66.87v-3.3Z"/>
      </g>
    </g>
  </g>
</svg>